<?xml version="1.0" encoding="UTF-8" standalone="no"?>
<!-- Created with Inkscape (http://www.inkscape.org/) -->

<svg
   xmlns:dc="http://purl.org/dc/elements/1.1/"
   xmlns:cc="http://creativecommons.org/ns#"
   xmlns:rdf="http://www.w3.org/1999/02/22-rdf-syntax-ns#"
   xmlns:svg="http://www.w3.org/2000/svg"
   xmlns="http://www.w3.org/2000/svg"
   version="1.1"
   width="1000"
   height="750"
   id="svg2985"
   xml:space="preserve"><metadata
     id="metadata2991"><rdf:RDF><cc:Work
         rdf:about=""><dc:format>image/svg+xml</dc:format><dc:type
           rdf:resource="http://purl.org/dc/dcmitype/StillImage" /><dc:title></dc:title></cc:Work></rdf:RDF></metadata><defs
     id="defs2989"><clipPath
       id="clipPath3005"><path
         d="M 0,600 800,600 800,0 0,0 0,600 z"
         id="path3007" /></clipPath></defs><g
     transform="matrix(1.25,0,0,-1.25,0,750)"
     id="g2993"><g
       transform="translate(710.5989,66.5904)"
       id="g2995"><path
         d="m 0,0 8.628,-13.692 4.952,0 6.002,9.528 6.002,-9.528 4.951,0 L 39.163,0 33.987,0 28.06,-9.341 22.17,-0.075 22.208,0 16.956,0 16.993,-0.075 11.104,-9.341 5.177,0 0,0 z"
         id="path2997"
         style="fill:#eb891b;fill-opacity:1;fill-rule:nonzero;stroke:none" /></g><path
       d="m 685.451,71.321 11.035,0 0,-2.546 -11.035,0 0,2.546 z"
       id="path2999"
       style="fill:#eb891b;fill-opacity:1;fill-rule:nonzero;stroke:none" /><g
       id="g3001"><g
         clip-path="url(#clipPath3005)"
         id="g3003"><g
           transform="translate(683.0997,64.2646)"
           id="g3009"><path
             d="m 0,0 16.918,0 c 0.265,0 0.488,-0.285 0.488,-0.638 l 0,-7.765 c 0,-0.353 -0.223,-0.638 -0.488,-0.638 L 0,-9.041 c -0.264,0 -0.488,0.285 -0.488,0.638 l 0,7.765 C -0.488,-0.285 -0.264,0 0,0 m -0.488,2.326 c -3.2,0 -5.777,-1.342 -5.777,-2.964 l 0,-7.802 c 0,-1.622 2.577,-2.926 5.777,-2.926 l 17.894,0 c 3.2,0 5.777,1.304 5.777,2.926 l 0,7.802 c 0,1.622 -2.577,2.964 -5.777,2.964 l -17.894,0 z"
             id="path3011"
             style="fill:#eb891b;fill-opacity:1;fill-rule:nonzero;stroke:none" /></g><path
           d="m 645.428,66.572 5.199,0 0,-13.686 -5.199,0 0,13.686 z"
           id="path3013"
           style="fill:#eb891b;fill-opacity:1;fill-rule:nonzero;stroke:none" /><g
           transform="translate(663.3845,66.5904)"
           id="g3015"><path
             d="m 0,0 -12.754,-5.821 0,-1.524 14.33,-6.347 8.477,0 L -7.015,-6.49 8.178,0 0,0 z"
             id="path3017"
             style="fill:#eb891b;fill-opacity:1;fill-rule:nonzero;stroke:none" /></g><path
           d="m 623.649,61.585 5.199,0 0,-8.699 -5.199,0 0,8.699 z"
           id="path3019"
           style="fill:#eb891b;fill-opacity:1;fill-rule:nonzero;stroke:none" /><g
           transform="translate(610.2899,66.5904)"
           id="g3021"><path
             d="m 0,0 18.569,-10.541 0,2.138 -2.514,3.414 L 7.878,0 0,0 z"
             id="path3023"
             style="fill:#eb891b;fill-opacity:1;fill-rule:nonzero;stroke:none" /></g><g
           transform="translate(642.2178,66.5904)"
           id="g3025"><path
             d="m 0,0 -18.569,-10.541 0,2.138 2.514,3.414 L -7.878,0 0,0 z"
             id="path3027"
             style="fill:#eb891b;fill-opacity:1;fill-rule:nonzero;stroke:none" /></g><path
           d="m 582.377,66.59 27.315,0 0,-2.546 -27.315,0 0,2.546 z"
           id="path3029"
           style="fill:#eb891b;fill-opacity:1;fill-rule:nonzero;stroke:none" /><path
           d="m 593.068,66.426 5.933,0 0,-13.528 -5.933,0 0,13.528 z"
           id="path3031"
           style="fill:#eb891b;fill-opacity:1;fill-rule:nonzero;stroke:none" /><g
           transform="translate(555.8565,64.2646)"
           id="g3033"><path
             d="m 0,0 16.918,0 c 0.265,0 0.488,-0.285 0.488,-0.638 l 0,-7.765 c 0,-0.353 -0.223,-0.638 -0.488,-0.638 L 0,-9.041 c -0.264,0 -0.488,0.285 -0.488,0.638 l 0,7.765 C -0.488,-0.285 -0.264,0 0,0 m -0.488,2.326 c -3.2,0 -5.777,-1.342 -5.777,-2.964 l 0,-7.802 c 0,-1.622 2.577,-2.926 5.777,-2.926 l 17.894,0 c 3.2,0 5.777,1.304 5.777,2.926 l 0,7.802 c 0,1.622 -2.577,2.964 -5.777,2.964 l -17.894,0 z"
             id="path3035"
             style="fill:#eb891b;fill-opacity:1;fill-rule:nonzero;stroke:none" /></g><path
           d="m 518.225,66.572 5.199,0 0,-13.686 -5.199,0 0,13.686 z"
           id="path3037"
           style="fill:#eb891b;fill-opacity:1;fill-rule:nonzero;stroke:none" /><g
           transform="translate(523.4244,60.5755)"
           id="g3039"><path
             d="m 0,0 0,-1.313 14.48,0 c 0.265,0 0.488,-0.139 0.488,-0.338 l 0,-3.151 c 0,-0.198 -0.223,-0.374 -0.488,-0.375 l -14.48,0 0,-2.513 14.968,0 c 3.2,0 5.777,1.616 5.777,2.526 l 0,2.188 C 20.745,-2.068 18.168,0 14.968,0 L 0,0 z"
             id="path3041"
             style="fill:#eb891b;fill-opacity:1;fill-rule:nonzero;stroke:none" /></g><g
           transform="translate(523.4244,58.8816)"
           id="g3043"><path
             d="m 0,0 0,1.313 14.48,0 c 0.265,0 0.488,0.141 0.488,0.338 l 0,3.638 c 0,0.199 -0.223,0.375 -0.488,0.375 l -14.48,0 0,2.026 14.968,0 c 3.2,0 5.777,-1.615 5.777,-2.525 l 0,-2.188 C 20.745,2.068 18.168,0 14.968,0 L 0,0 z"
             id="path3045"
             style="fill:#eb891b;fill-opacity:1;fill-rule:nonzero;stroke:none" /></g><g
           transform="translate(488.9338,64.2646)"
           id="g3047"><path
             d="m 0,0 16.918,0 c 0.265,0 0.488,-0.285 0.488,-0.638 l 0,-7.765 c 0,-0.353 -0.223,-0.638 -0.488,-0.638 L 0,-9.041 c -0.264,0 -0.488,0.285 -0.488,0.638 l 0,7.765 C -0.488,-0.285 -0.264,0 0,0 m -0.488,2.326 c -3.2,0 -5.777,-1.342 -5.777,-2.964 l 0,-7.802 c 0,-1.622 2.577,-2.926 5.777,-2.926 l 17.894,0 c 3.2,0 5.777,1.304 5.777,2.926 l 0,7.802 c 0,1.622 -2.577,2.964 -5.777,2.964 l -17.894,0 z"
             id="path3049"
             style="fill:#eb891b;fill-opacity:1;fill-rule:nonzero;stroke:none" /></g><path
           d="m 451.639,66.572 5.199,0 0,-13.686 -5.199,0 0,13.686 z"
           id="path3051"
           style="fill:#eb891b;fill-opacity:1;fill-rule:nonzero;stroke:none" /><g
           transform="translate(459.239,59.5451)"
           id="g3053"><path
             d="m 0,0 11.929,-6.647 8.478,0 L 4.689,0.556 0,0 z"
             id="path3055"
             style="fill:#eb891b;fill-opacity:1;fill-rule:nonzero;stroke:none" /></g><g
           transform="translate(456.8252,66.5904)"
           id="g3057"><path
             d="m 0,0 0,-2.213 14.48,0 c 0.265,0 0.488,-0.14 0.488,-0.338 l 0,-3.451 c 0,-0.198 -0.223,-0.375 -0.488,-0.375 l -14.48,0 0,-1.763 14.968,0 c 3.2,0 5.777,0.741 5.777,1.65 l 0,4.839 C 20.745,-0.741 18.168,0 14.968,0 L 0,0 z"
             id="path3059"
             style="fill:#eb891b;fill-opacity:1;fill-rule:nonzero;stroke:none" /></g><path
           d="m 403.772,61.264 15.16,0 0,-2.359 -15.16,0 0,2.359 z"
           id="path3061"
           style="fill:#eb891b;fill-opacity:1;fill-rule:nonzero;stroke:none" /><path
           d="m 403.772,55.412 23.205,0 0,-2.509 -23.205,0 0,2.509 z"
           id="path3063"
           style="fill:#eb891b;fill-opacity:1;fill-rule:nonzero;stroke:none" /><path
           d="m 402.495,66.572 5.199,0 0,-13.686 -5.199,0 0,13.686 z"
           id="path3065"
           style="fill:#eb891b;fill-opacity:1;fill-rule:nonzero;stroke:none" /><path
           d="m 403.772,66.572 23.205,0 0,-2.508 -23.205,0 0,2.508 z"
           id="path3067"
           style="fill:#eb891b;fill-opacity:1;fill-rule:nonzero;stroke:none" /><g
           transform="translate(357.0789,66.5904)"
           id="g3069"><path
             d="m 0,0 8.628,-13.692 4.952,0 6.002,9.528 6.002,-9.528 4.951,0 L 39.163,0 33.987,0 28.06,-9.341 22.17,-0.075 22.208,0 16.956,0 16.993,-0.075 11.104,-9.341 5.177,0 0,0 z"
             id="path3071"
             style="fill:#eb891b;fill-opacity:1;fill-rule:nonzero;stroke:none" /></g><g
           transform="translate(329.5047,64.2646)"
           id="g3073"><path
             d="m 0,0 16.918,0 c 0.265,0 0.488,-0.285 0.488,-0.638 l 0,-7.765 c 0,-0.353 -0.223,-0.638 -0.488,-0.638 L 0,-9.041 c -0.265,0 -0.488,0.285 -0.488,0.638 l 0,7.765 C -0.488,-0.285 -0.265,0 0,0 m -0.488,2.326 c -3.2,0 -5.777,-1.342 -5.777,-2.964 l 0,-7.802 c 0,-1.622 2.577,-2.926 5.777,-2.926 l 17.894,0 c 3.2,0 5.777,1.304 5.777,2.926 l 0,7.802 c 0,1.622 -2.577,2.964 -5.777,2.964 l -17.894,0 z"
             id="path3075"
             style="fill:#eb891b;fill-opacity:1;fill-rule:nonzero;stroke:none" /></g><path
           d="m 292.058,66.572 5.199,0 0,-13.686 -5.199,0 0,13.686 z"
           id="path3077"
           style="fill:#eb891b;fill-opacity:1;fill-rule:nonzero;stroke:none" /><g
           transform="translate(310.0145,66.5904)"
           id="g3079"><path
             d="m 0,0 -12.754,-5.821 0,-1.524 14.33,-6.347 8.477,0 L -7.015,-6.49 8.178,0 0,0 z"
             id="path3081"
             style="fill:#eb891b;fill-opacity:1;fill-rule:nonzero;stroke:none" /></g><g
           transform="translate(259.0124,66.5904)"
           id="g3083"><path
             d="m 0,0 0,-10.766 c 0,-1.621 2.335,-2.926 5.235,-2.926 l 16.218,0 c 2.9,0 5.235,1.305 5.235,2.926 l 0,10.766 -5.235,0 0,-10.729 c 0,-0.352 -0.203,-0.637 -0.442,-0.637 l -15.334,0 c -0.24,0 -0.442,0.285 -0.442,0.637 L 5.235,0 0,0 z"
             id="path3085"
             style="fill:#eb891b;fill-opacity:1;fill-rule:nonzero;stroke:none" /></g><path
           d="m 247.079,66.572 5.199,0 0,-13.686 -5.199,0 0,13.686 z"
           id="path3087"
           style="fill:#eb891b;fill-opacity:1;fill-rule:nonzero;stroke:none" /><path
           d="m 230.223,55.412 22.055,0 0,-2.509 -22.055,0 0,2.509 z"
           id="path3089"
           style="fill:#eb891b;fill-opacity:1;fill-rule:nonzero;stroke:none" /><g
           transform="translate(247.0915,66.5904)"
           id="g3091"><path
             d="m 0,0 c -7.953,0 -16.881,-7.751 -16.881,-11.179 l 3.902,0 c 0,2.667 6.854,8.666 12.979,8.666 L 0,0 z"
             id="path3093"
             style="fill:#eb891b;fill-opacity:1;fill-rule:nonzero;stroke:none" /></g><path
           d="m 195.536,66.59 5.199,0 0,-13.687 -5.199,0 0,13.687 z"
           id="path3095"
           style="fill:#eb891b;fill-opacity:1;fill-rule:nonzero;stroke:none" /><path
           d="m 218.483,66.59 5.199,0 0,-13.687 -5.199,0 0,13.687 z"
           id="path3097"
           style="fill:#eb891b;fill-opacity:1;fill-rule:nonzero;stroke:none" /><g
           transform="translate(200.7351,66.5904)"
           id="g3099"><path
             d="m 0,0 17.748,-9.992 0,-3.695 L 0.001,-3.722 0,0 z"
             id="path3101"
             style="fill:#eb891b;fill-opacity:1;fill-rule:nonzero;stroke:none" /></g><g
           transform="translate(150.5712,64.2646)"
           id="g3103"><path
             d="m 0,0 16.918,0 c 0.265,0 0.488,-0.285 0.488,-0.638 l 0,-7.765 c 0,-0.353 -0.223,-0.638 -0.488,-0.638 L 0,-9.041 c -0.265,0 -0.488,0.285 -0.488,0.638 l 0,7.765 C -0.488,-0.285 -0.265,0 0,0 m -0.488,2.326 c -3.2,0 -5.777,-1.342 -5.777,-2.964 l 0,-7.802 c 0,-1.622 2.577,-2.926 5.777,-2.926 l 17.894,0 c 3.2,0 5.777,1.304 5.777,2.926 l 0,7.802 c 0,1.622 -2.577,2.964 -5.777,2.964 l -17.894,0 z"
             id="path3105"
             style="fill:#eb891b;fill-opacity:1;fill-rule:nonzero;stroke:none" /></g><path
           d="m 115.673,66.59 5.199,0 0,-13.687 -5.199,0 0,13.687 z"
           id="path3107"
           style="fill:#eb891b;fill-opacity:1;fill-rule:nonzero;stroke:none" /><path
           d="m 115.673,55.412 23.205,0 0,-2.509 -23.205,0 0,2.509 z"
           id="path3109"
           style="fill:#eb891b;fill-opacity:1;fill-rule:nonzero;stroke:none" /><path
           d="m 115.673,61.264 12.401,0 0,-2.359 -12.401,0 0,2.359 z"
           id="path3111"
           style="fill:#eb891b;fill-opacity:1;fill-rule:nonzero;stroke:none" /><g
           transform="translate(88,64.2646)"
           id="g3113"><path
             d="m 0,0 16.918,0 c 0.265,0 0.488,-0.285 0.488,-0.638 l 0,-7.765 c 0,-0.353 -0.223,-0.638 -0.488,-0.638 L 0,-9.041 c -0.265,0 -0.488,0.285 -0.488,0.638 l 0,7.765 C -0.488,-0.285 -0.265,0 0,0 m -0.488,2.326 c -3.2,0 -5.777,-1.342 -5.777,-2.964 l 0,-7.802 c 0,-1.622 2.577,-2.926 5.777,-2.926 l 17.894,0 c 3.2,0 5.777,1.304 5.777,2.926 l 0,7.802 c 0,1.622 -2.577,2.964 -5.777,2.964 l -17.894,0 z"
             id="path3115"
             style="fill:#eb891b;fill-opacity:1;fill-rule:nonzero;stroke:none" /></g><path
           d="m 50.424,66.572 5.199,0 0,-13.686 -5.199,0 0,13.686 z"
           id="path3117"
           style="fill:#eb891b;fill-opacity:1;fill-rule:nonzero;stroke:none" /><g
           transform="translate(68.3808,66.5904)"
           id="g3119"><path
             d="m 0,0 -12.754,-5.821 0,-1.524 14.33,-6.347 8.477,0 L -7.015,-6.49 8.178,0 0,0 z"
             id="path3121"
             style="fill:#eb891b;fill-opacity:1;fill-rule:nonzero;stroke:none" /></g><g
           transform="translate(130.3472,244.4597)"
           id="g3123"><path
             d="m 0,0 c -2.476,-0.175 -4.944,-0.594 -7.396,-1.703 -3.294,-1.408 -6.29,-3.524 -8.501,-6.322 -2.359,-2.736 -3.361,-6.327 -3.355,-9.879 l 0,-27.215 0,-42.811 0,-45.119 c 2.476,0.175 4.944,0.593 7.396,1.703 3.294,1.408 6.29,3.524 8.501,6.321 2.359,2.737 3.361,6.327 3.355,9.88 L 0,-87.93 0,-45.119 0,0 z"
             id="path3125"
             style="fill:#b52428;fill-opacity:1;fill-rule:nonzero;stroke:none" /></g><g
           transform="translate(609.7917,244.4597)"
           id="g3127"><path
             d="m 0,0 c -2.476,-0.175 -4.944,-0.594 -7.396,-1.703 -3.295,-1.408 -6.29,-3.524 -8.501,-6.322 -2.359,-2.736 -3.362,-6.327 -3.355,-9.879 l 0,-27.215 0,-42.811 0,-45.119 c 2.474,0.175 4.944,0.593 7.396,1.703 3.294,1.408 6.289,3.524 8.501,6.321 2.358,2.737 3.361,6.327 3.355,9.88 L 0,-87.93 0,-45.119 0,0 z"
             id="path3129"
             style="fill:#b52428;fill-opacity:1;fill-rule:nonzero;stroke:none" /></g><g
           transform="translate(209.4078,244.4597)"
           id="g3131"><path
             d="m 0,0 c -2.476,-0.175 -4.944,-0.594 -7.396,-1.703 -3.294,-1.408 -6.29,-3.524 -8.501,-6.322 -2.359,-2.736 -3.361,-6.327 -3.355,-9.879 l 0,-2.271 0,-24.944 0,-13.514 -52.038,0 c -1.545,0.003 -3.079,-0.317 -4.269,-1.135 -1.218,-0.767 -2.171,-1.81 -2.783,-2.953 -0.483,-0.85 -0.65,-1.715 -0.725,-2.573 l 59.815,0 c 2.474,0.175 4.944,0.593 7.396,1.703 3.294,1.407 6.289,3.524 8.501,6.321 2.358,2.736 3.361,6.327 3.355,9.879 L 0,-20.175 0,0 z"
             id="path3133"
             style="fill:#b52428;fill-opacity:1;fill-rule:nonzero;stroke:none" /></g><g
           transform="translate(209.4078,111.4104)"
           id="g3135"><path
             d="m 0,0 c -2.476,0.175 -4.944,0.594 -7.396,1.703 -3.294,1.408 -6.29,3.524 -8.501,6.322 -2.359,2.737 -3.361,6.327 -3.355,9.879 l 0,2.271 0,24.944 0,13.514 -52.038,0 c -1.545,-0.003 -3.079,0.316 -4.269,1.135 -1.218,0.767 -2.171,1.81 -2.783,2.953 -0.483,0.85 -0.65,1.715 -0.725,2.573 l 59.815,0 c 2.474,-0.175 4.944,-0.593 7.396,-1.703 3.294,-1.407 6.289,-3.524 8.501,-6.321 C -0.997,54.533 0.006,50.943 0,47.391 L 0,20.175 0,0 z"
             id="path3137"
             style="fill:#b52428;fill-opacity:1;fill-rule:nonzero;stroke:none" /></g><g
           transform="translate(246.5072,189.0445)"
           id="g3139"><path
             d="m 0,0 0,-59.73 c -0.006,-3.552 0.996,-7.142 3.355,-9.88 2.211,-2.797 5.207,-4.913 8.501,-6.321 2.452,-1.109 4.92,-1.528 7.396,-1.703 l 0,59.73 c 0.006,3.552 -0.996,7.142 -3.355,9.879 -2.211,2.798 -5.207,4.914 -8.501,6.322 C 4.944,-0.594 2.476,-0.175 0,0"
             id="path3141"
             style="fill:#b52327;fill-opacity:1;fill-rule:nonzero;stroke:none" /></g><g
           transform="translate(294.2155,189.0445)"
           id="g3143"><path
             d="m 0,0 0,-59.73 c -0.007,-3.552 0.996,-7.142 3.355,-9.88 2.211,-2.797 5.207,-4.913 8.501,-6.321 2.452,-1.109 4.92,-1.528 7.396,-1.703 l 0,59.73 c 0.006,3.552 -0.997,7.142 -3.355,9.879 -2.212,2.798 -5.207,4.914 -8.501,6.322 C 4.944,-0.594 2.474,-0.175 0,0"
             id="path3145"
             style="fill:#b52327;fill-opacity:1;fill-rule:nonzero;stroke:none" /></g><g
           transform="translate(486.4851,189.0445)"
           id="g3147"><path
             d="m 0,0 0,-59.73 c -0.007,-3.552 0.996,-7.142 3.355,-9.88 2.211,-2.797 5.207,-4.913 8.501,-6.321 2.452,-1.109 4.92,-1.528 7.396,-1.703 l 0,59.73 c 0.006,3.552 -0.997,7.142 -3.355,9.879 -2.212,2.798 -5.207,4.914 -8.501,6.322 C 4.944,-0.594 2.474,-0.175 0,0"
             id="path3149"
             style="fill:#b52327;fill-opacity:1;fill-rule:nonzero;stroke:none" /></g><g
           transform="translate(534.3327,189.0445)"
           id="g3151"><path
             d="m 0,0 0,-59.73 c -0.006,-3.552 0.997,-7.142 3.355,-9.88 2.212,-2.797 5.207,-4.913 8.501,-6.321 2.452,-1.109 4.922,-1.528 7.396,-1.703 l 0,59.73 c 0.007,3.552 -0.996,7.142 -3.355,9.879 -2.211,2.798 -5.206,4.914 -8.501,6.322 C 4.944,-0.594 2.476,-0.175 0,0"
             id="path3153"
             style="fill:#b52327;fill-opacity:1;fill-rule:nonzero;stroke:none" /></g><g
           transform="translate(688.8512,111.4104)"
           id="g3155"><path
             d="m 0,0 c -2.474,0.175 -4.944,0.594 -7.396,1.703 -3.294,1.408 -6.289,3.524 -8.501,6.322 -2.358,2.737 -3.361,6.327 -3.355,9.879 l 0,2.271 0,24.944 0,13.514 -52.038,0 c -1.545,-0.003 -3.078,0.316 -4.269,1.135 -1.217,0.767 -2.171,1.81 -2.783,2.953 -0.483,0.85 -0.648,1.715 -0.725,2.573 l 59.815,0 c 2.476,-0.175 4.944,-0.593 7.396,-1.703 3.294,-1.407 6.29,-3.524 8.501,-6.321 C -0.996,54.533 0.007,50.943 0,47.391 L 0,20.175 0,0 z"
             id="path3157"
             style="fill:#b52428;fill-opacity:1;fill-rule:nonzero;stroke:none" /></g><g
           transform="translate(609.7846,244.4597)"
           id="g3159"><path
             d="m 0,0 0,-6.662 59.815,0 0,-13.513 0,-24.944 0,-13.514 -52.038,0 C 6.232,-58.63 4.699,-58.95 3.507,-59.768 2.291,-60.535 1.337,-61.578 0.724,-62.721 0.242,-63.571 0.076,-64.436 0,-65.294 l 59.815,0 c 2.475,0.175 4.944,0.593 7.395,1.703 3.294,1.407 6.291,3.524 8.502,6.321 2.359,2.736 3.362,6.327 3.355,9.879 l 0,29.487 c 0.007,3.552 -0.996,7.143 -3.355,9.879 -2.211,2.798 -5.208,4.914 -8.502,6.322 C 64.759,-0.594 62.29,-0.175 59.815,0 L 0,0 z"
             id="path3161"
             style="fill:#b52428;fill-opacity:1;fill-rule:nonzero;stroke:none" /></g><path
           d="m 265.759,118.67 47.708,0 0,-7.259 -47.708,0 0,7.259 z"
           id="path3163"
           style="fill:#b52428;fill-opacity:1;fill-rule:nonzero;stroke:none" /><path
           d="m 246.507,189.045 47.708,0 0,-7.259 -47.708,0 0,7.259 z"
           id="path3165"
           style="fill:#b52428;fill-opacity:1;fill-rule:nonzero;stroke:none" /><path
           d="m 486.485,189.045 47.848,0 0,-7.259 -47.848,0 0,7.259 z"
           id="path3167"
           style="fill:#b52428;fill-opacity:1;fill-rule:nonzero;stroke:none" /><g
           transform="translate(505.513,136.4304)"
           id="g3169"><path
             d="M 0,0 C 0.079,-0.93 0.259,-1.881 0.762,-2.801 1.402,-4.038 2.39,-5.15 3.66,-5.981 4.902,-6.867 6.507,-7.232 8.12,-7.23 l 1.716,0 9.302,0 9.835,0 c -0.078,0.93 -0.258,1.843 -0.762,2.763 -0.639,1.238 -1.588,2.388 -2.859,3.218 C 24.109,-0.363 22.466,0.002 20.853,0 L 19.138,0 9.836,0 0,0 z"
             id="path3171"
             style="fill:#b52428;fill-opacity:1;fill-rule:nonzero;stroke:none" /></g><path
           d="m 350.201,244.46 99.176,0 0,-7.184 -99.176,0 0,7.184 z"
           id="path3173"
           style="fill:#b52428;fill-opacity:1;fill-rule:nonzero;stroke:none" /><g
           transform="translate(369.453,244.4597)"
           id="g3175"><path
             d="m 0,0 c -2.476,-0.175 -4.944,-0.594 -7.396,-1.703 -3.294,-1.408 -6.29,-3.524 -8.501,-6.322 -2.359,-2.736 -3.361,-6.327 -3.355,-9.879 l 0,-27.215 0,-42.811 0,-45.119 c 2.476,0.175 4.944,0.593 7.396,1.703 3.294,1.408 6.29,3.524 8.501,6.321 2.359,2.737 3.361,6.327 3.355,9.88 L 0,-87.93 0,-45.119 0,0 z"
             id="path3177"
             style="fill:#b52428;fill-opacity:1;fill-rule:nonzero;stroke:none" /></g><g
           transform="translate(430.1254,244.4597)"
           id="g3179"><path
             d="m 0,0 c 2.476,-0.175 4.944,-0.594 7.396,-1.703 3.294,-1.408 6.289,-3.524 8.501,-6.322 2.358,-2.736 3.361,-6.327 3.355,-9.879 l 0,-27.215 0,-42.811 0,-45.119 c -2.476,0.175 -4.944,0.593 -7.396,1.703 -3.294,1.408 -6.29,3.524 -8.501,6.321 -2.359,2.737 -3.361,6.327 -3.355,9.88 L 0,-87.93 0,-45.119 0,0 z"
             id="path3181"
             style="fill:#b52428;fill-opacity:1;fill-rule:nonzero;stroke:none" /></g><g
           transform="translate(518.4027,369.6868)"
           id="g3183"><path
             d="m 0,0 c 2.96,0 5.323,-2.438 5.323,-5.399 0,-2.96 -2.362,-5.322 -5.323,-5.322 -2.961,0 -5.361,2.363 -5.361,5.322 C -5.361,-2.44 -2.96,0 0,0 m 0,8.668 c -7.752,0 -14.067,-6.314 -14.067,-14.067 0,-7.752 6.316,-13.991 14.067,-13.991 7.752,0 14.029,6.239 14.029,13.991 C 14.029,2.353 7.752,8.668 0,8.668"
             id="path3185"
             style="fill:#b62429;fill-opacity:1;fill-rule:nonzero;stroke:none" /></g><g
           transform="translate(585.8109,418.0474)"
           id="g3187"><path
             d="m 0,0 c 2.96,0 5.323,-2.4 5.323,-5.361 0,-2.96 -2.362,-5.322 -5.323,-5.322 -2.961,0 -5.399,2.363 -5.399,5.322 C -5.399,-2.402 -2.96,0 0,0 m 0,6.083 c -6.309,0 -11.444,-5.134 -11.444,-11.444 0,-6.309 5.135,-11.405 11.444,-11.405 6.309,0 11.406,5.096 11.406,11.405 C 11.406,0.948 6.31,6.083 0,6.083"
             id="path3189"
             style="fill:#b62429;fill-opacity:1;fill-rule:nonzero;stroke:none" /></g><g
           transform="translate(639.5322,414.9679)"
           id="g3191"><path
             d="m 0,0 c -0.298,-0.001 -0.612,-0.021 -0.912,-0.076 -0.601,-0.111 -1.189,-0.323 -1.749,-0.646 l -0.038,0 -21.861,-13.421 -19.2,10.645 -0.456,0.228 -0.305,-0.38 c -2.354,-2.765 -4.715,-5.523 -7.071,-8.288 l -0.533,-0.608 0.723,-0.343 c 7.446,-3.465 14.907,-6.918 22.355,-10.379 0.014,-0.007 0.025,-0.031 0.038,-0.038 1.117,-0.57 2.367,-1.252 3.688,-1.597 1.338,-0.349 2.803,-0.329 4.182,0.571 L 2.395,-9.315 c 1.644,0.974 2.387,2.223 2.471,3.498 C 4.952,-4.542 4.441,-3.34 3.802,-2.243 3.11,-1.055 2.042,-0.317 0.874,-0.076 0.582,-0.015 0.298,0.001 0,0 m -35.966,31.784 c -1.646,0.045 -2.921,-0.713 -3.878,-1.711 -0.958,-0.997 -1.659,-2.229 -2.319,-3.307 l 0.038,0 c -4.547,-6.86 -9.106,-13.707 -13.649,-20.569 l -0.457,-0.684 0.761,-0.228 c 3.314,-1.079 6.648,-2.153 9.961,-3.232 l 0,-1.901 1.14,2.015 10.76,19.124 25.701,0 0.038,0 c 1.294,0.034 2.476,0.514 3.346,1.33 0.869,0.817 1.4,2.01 1.368,3.384 -0.029,1.269 -0.21,2.569 -0.95,3.612 -0.74,1.043 -2.042,1.702 -3.954,1.673 l -27.906,0.494 z"
             id="path3193"
             style="fill:#b62429;fill-opacity:1;fill-rule:nonzero;stroke:none" /></g><g
           transform="translate(530.412,379.8558)"
           id="g3195"><path
             d="m 0,0 37.777,27.199 c 1.308,0.941 3.093,0.647 4.035,-0.661 0.941,-1.307 0.669,-3.123 -0.638,-4.064 L 3.396,-4.725 C 2.089,-5.667 0.28,-5.341 -0.661,-4.034 -1.603,-2.727 -1.307,-0.942 0,0 M -3.018,2.339 C -5.52,0.122 -5.945,-3.658 -3.947,-6.434 -1.815,-9.394 2.28,-10.039 5.24,-7.908 l 38.353,27.636 c 2.958,2.131 3.659,6.219 1.528,9.179 -2.132,2.96 -6.25,3.637 -9.211,1.506 L -2.472,2.753 C -2.658,2.62 -2.85,2.487 -3.018,2.339"
             id="path3197"
             style="fill:#b62429;fill-opacity:1;fill-rule:nonzero;stroke:none" /></g><g
           transform="translate(433.0874,368.8885)"
           id="g3199"><path
             d="m 0,0 c 2.96,0 5.323,-2.4 5.323,-5.361 0,-2.961 -2.362,-5.322 -5.323,-5.322 -2.961,0 -5.361,2.363 -5.361,5.322 C -5.361,-2.402 -2.96,0 0,0 m 0,8.706 c -7.752,0 -14.067,-6.314 -14.067,-14.067 0,-7.752 6.316,-14.029 14.067,-14.029 7.752,0 14.029,6.277 14.029,14.029 C 14.029,2.391 7.752,8.706 0,8.706"
             id="path3201"
             style="fill:#b62429;fill-opacity:1;fill-rule:nonzero;stroke:none" /></g><g
           transform="translate(452.1945,365.9158)"
           id="g3203"><path
             d="m 0,0 46.511,-1.928 c 1.608,-0.066 2.831,-1.4 2.764,-3.01 -0.066,-1.61 -1.4,-2.87 -3.01,-2.804 l -46.511,1.928 c -1.61,0.067 -2.831,1.439 -2.765,3.049 C -2.944,-1.156 -1.61,0.067 0,0 m -0.929,3.703 c -3.338,-0.199 -6.007,-2.91 -6.149,-6.327 -0.149,-3.645 2.674,-6.681 6.318,-6.832 l 47.231,-1.939 c 3.644,-0.151 6.719,2.633 6.87,6.277 0.151,3.645 -2.671,6.72 -6.315,6.87 l -47.271,1.94 c -0.228,0.01 -0.462,0.024 -0.684,0.011"
             id="path3205"
             style="fill:#b62429;fill-opacity:1;fill-rule:nonzero;stroke:none" /></g><g
           transform="translate(194.9584,379.844)"
           id="g3207"><path
             d="m 0,0 c 0.19,0 2.281,-1.37 4.65,-3.042 l 4.289,-3.041 0,-1.863 0,-1.863 -1.145,-1.901 -1.147,-1.901 -4.191,0 -4.192,0 -3.83,2.281 -3.799,2.281 0,0.761 c 0,0.405 1.05,1.37 2.324,2.167 1.276,0.797 3.287,2.516 4.487,3.802 C -1.353,-1.033 -0.189,0 0,0 m 127.513,13.041 3.34,-3.194 3.308,-3.156 0,-3.688 0,-3.725 -1.932,-1.749 -1.9,-1.787 -5.96,0.076 -5.927,0.076 -1.343,0.608 -1.342,0.609 -3.602,6.729 -3.602,6.729 0.59,0.685 0.556,0.646 8.907,0.57 8.907,0.571 z m 99.613,1.52 -1.768,-4.714 -1.801,-4.714 -3.34,-0.951 -3.34,-0.988 -1.081,-1.787 c -0.591,-0.98 -1.08,-2.07 -1.08,-2.434 l 0,-0.646 4.388,0 4.388,0 6.319,2.091 6.321,2.129 3.013,0 3.012,0 3.209,1.445 3.209,1.407 1.342,-0.989 1.376,-0.988 1.015,0.456 c 0.564,0.251 1.48,1.467 2.03,2.661 l 1.015,2.167 -1.8,1.673 -1.834,1.711 -2.915,-0.456 -2.946,-0.494 -3.407,-1.749 -3.405,-1.749 -1.048,0.494 -1.048,0.456 -1.047,2.738 -1.015,2.699 -3.897,0.266 -3.865,0.266 z m 60.056,16.044 -2.881,-1.672 -2.881,-1.711 -2.39,0 -2.424,-0.038 -1.768,-1.027 c -0.976,-0.577 -1.88,-1.481 -2.031,-2.015 l -0.294,-0.988 2.782,-0.837 c 1.531,-0.47 3.689,-0.901 4.781,-0.95 l 1.965,-0.114 3.603,1.673 3.602,1.635 1.539,-1.255 1.539,-1.255 1.474,1.749 1.506,1.711 0,1.521 0,1.559 -0.885,1.026 -0.884,0.988 -3.176,0 -3.177,0 z m -259.315,5.209 3.7,-2.167 3.733,-2.205 0,-0.798 c 0,-0.429 -0.327,-1.728 -0.72,-2.928 l -0.688,-2.205 -0.949,0.076 c -0.514,0.037 -1.936,0.459 -3.144,0.95 -1.209,0.492 -3.254,1.427 -4.584,2.054 l -2.424,1.14 0.786,1.711 c 0.438,0.949 1.595,2.313 2.554,3.041 l 1.736,1.331 z m 293.6,6.653 -2.062,-1.254 c -1.13,-0.679 -2.225,-1.581 -2.456,-2.015 l -0.427,-0.798 1.147,-1.331 1.146,-1.331 1.638,0 1.637,0 2.521,2.129 2.521,2.167 0.263,-0.988 0.294,-0.989 -1.014,-0.722 c -0.554,-0.406 -1.333,-0.861 -1.736,-1.027 l -0.721,-0.304 0.982,-1.369 0.983,-1.406 2.325,0.532 c 1.274,0.284 3.045,0.826 3.962,1.217 l 1.671,0.722 0.457,1.369 0.459,1.368 -1.015,0.761 -1.048,0.76 -2.685,0 -2.718,0 -0.393,0.761 -0.393,0.722 -2.653,0.494 -2.685,0.532 z m -274.804,0.799 3.471,-0.875 3.504,-0.874 0.753,-1.635 0.786,-1.673 -0.459,-1.673 -0.457,-1.672 -1.245,0.076 c -0.678,0.033 -2.636,0.786 -4.355,1.673 l -3.144,1.596 -0.426,1.369 -0.459,1.369 1.016,1.178 1.015,1.141 z m 297.17,10.303 -2.03,-1.863 -2.031,-1.825 1.703,-1.635 1.704,-1.596 2.488,0.532 c 1.372,0.299 3.293,0.905 4.257,1.331 l 1.769,0.76 0,1.635 0,1.635 -1.671,0.494 c -0.906,0.282 -2.674,0.525 -3.929,0.532 l -2.26,0 z m -20.139,9.353 c -1.089,-0.004 -2.805,-0.446 -3.831,-0.989 l -1.866,-0.988 0,-0.951 c 0,-0.532 0.4,-1.415 0.884,-1.977 l 0.884,-1.026 3.831,0 3.831,0 0.492,-0.951 0.524,-0.988 3.699,0.532 3.701,0.494 1.048,1.255 1.08,1.217 -0.392,1.178 -0.393,1.179 -5.764,1.026 c -3.164,0.56 -6.639,0.992 -7.728,0.989 m 41.227,5.094 0.427,-1.33 0.425,-1.331 -0.623,-0.684 -0.654,-0.685 -0.918,0.381 -0.916,0.418 0,1.102 0,1.103 1.114,0.494 1.145,0.532 z m -283.841,3.84 2.062,-0.646 2.063,-0.684 -0.23,-3.156 -0.229,-3.155 -3.765,-0.761 -3.798,-0.722 -5.6,2.167 -5.599,2.205 -6.582,-3.346 c -3.618,-1.848 -6.746,-3.383 -6.942,-3.383 -0.197,0 -0.564,0.632 -0.819,1.406 l -0.459,1.407 2.227,2.319 2.226,2.319 4.323,1.939 4.29,1.901 8.415,0.076 8.417,0.114 z m 133.374,0.305 4.551,-1.331 4.52,-1.293 0,-1.521 c 0,-0.839 -0.214,-2.149 -0.459,-2.889 l -0.426,-1.331 -1.571,0.038 c -0.864,0.024 -3.639,1.01 -6.157,2.205 l -4.585,2.168 0,0.76 c 0,0.406 0.927,1.295 2.064,1.977 l 2.063,1.217 z m 143.558,3.573 -6.647,-0.494 c -3.656,-0.268 -7.729,-0.681 -9.038,-0.912 l -2.357,-0.419 0,-1.026 c 0,-0.563 1.615,-3.968 3.601,-7.566 l 3.602,-6.539 3.537,-0.304 c 1.941,-0.177 5.076,-0.41 6.974,-0.495 l 3.472,-0.152 2.39,2.433 2.423,2.472 3.046,0.57 3.045,0.608 1.278,1.635 1.309,1.673 -0.851,0.989 -0.852,0.988 -3.929,0.114 -3.93,0.152 -3.536,3.118 -3.537,3.155 z m -218.351,3.308 2.948,-0.532 c 1.611,-0.283 3.328,-0.87 3.831,-1.331 l 0.917,-0.836 0,-1.901 0,-1.901 1.473,-1.521 c 0.807,-0.846 1.441,-1.973 1.441,-2.509 l 0,-0.989 -7.138,-2.433 -7.139,-2.471 -4.486,-0.342 -4.487,-0.343 -0.49,0.913 -0.491,0.912 0.785,1.711 0.787,1.711 1.997,0.494 c 1.095,0.281 2.78,0.776 3.733,1.103 l 1.736,0.608 1.342,4.144 1.375,4.144 0.917,0.685 0.949,0.684 z m 75.218,2.966 1.016,-1.597 1.048,-1.635 -0.917,-0.684 c -0.504,-0.371 -1.109,-0.634 -1.31,-0.571 -0.202,0.063 -1.292,0.297 -2.423,0.495 l -2.031,0.342 0.263,0.988 0.294,1.027 2.031,0.836 2.029,0.799 z m 13.034,5.626 2.193,-1.33 2.194,-1.293 0,-1.217 0,-1.178 -2.128,-1.787 c -1.17,-0.967 -2.413,-1.749 -2.783,-1.749 -0.371,0 -1.417,0.895 -2.292,1.977 -0.877,1.082 -1.572,2.423 -1.572,2.966 l 0,0.988 2.193,1.293 2.195,1.33 z m 97.419,1.673 0,-1.216 c 0,-0.668 -0.474,-1.766 -1.048,-2.434 l -1.048,-1.216 -4.519,-1.027 -4.486,-1.026 -1.048,-2.89 c -0.573,-1.591 -1.048,-3.527 -1.048,-4.296 l 0,-1.407 2.39,0.495 c 1.31,0.269 4.17,0.723 6.386,1.026 l 4.028,0.571 3.045,1.71 3.045,1.711 0.787,2.053 c 0.444,1.132 0.818,2.622 0.818,3.308 l 0,1.255 -2.39,1.672 c -1.309,0.927 -2.93,1.672 -3.636,1.673 l -1.276,0.038 z m -162.225,20.797 12.674,0 12.704,0 2.489,-3.156 2.522,-3.193 0,-1.217 0,-1.255 -0.884,-0.646 c -0.489,-0.351 -2.556,-1.066 -4.584,-1.597 l -3.701,-0.95 -0.36,-2.433 -0.36,-2.434 -4.388,-1.52 -4.388,-1.521 -2.587,0.114 c -1.41,0.064 -5.073,0.346 -8.154,0.646 l -5.599,0.532 -1.212,1.179 c -0.672,0.647 -1.717,2.245 -2.292,3.536 l -1.015,2.357 0.426,1.331 c 0.241,0.731 0.816,1.349 1.277,1.406 0.46,0.059 2.606,0.03 4.781,-0.076 l 3.962,-0.19 -0.459,2.852 c -0.254,1.567 -0.547,3.627 -0.654,4.562 l -0.198,1.673 z m 220.218,2.129 -0.754,-2.471 -0.753,-2.51 -2.75,-0.608 -2.719,-0.608 -1.178,0.988 c -0.639,0.544 -2.28,1.621 -3.668,2.357 -1.386,0.737 -3.593,1.539 -4.912,1.787 l -2.423,0.457 -6.581,-5.741 -6.616,-5.703 -2.39,-3.498 -2.39,-3.498 -0.851,-3.84 c -0.468,-2.124 -0.704,-4.048 -0.524,-4.258 0.178,-0.209 3.266,0.042 6.876,0.57 l 6.582,0.951 2.882,1.901 2.914,1.901 0.754,2.547 0.785,2.547 -0.917,1.217 -0.884,1.255 1.408,1.178 c 0.767,0.651 1.99,1.179 2.718,1.179 l 1.309,0 0,-1.825 0,-1.825 4.88,0.532 4.879,0.533 1.212,1.292 1.244,1.293 1.768,0 1.768,-0.038 -1.768,-1.559 -1.736,-1.559 2.653,-5.132 c 1.471,-2.811 2.685,-5.485 2.685,-5.931 l 0,-0.799 -4.322,-1.406 -4.29,-1.369 -0.819,-2.7 c -0.445,-1.484 -0.818,-3.207 -0.818,-3.84 l 0,-1.178 1.277,0.038 c 0.704,0.01 3.963,0.523 7.237,1.14 l 5.959,1.103 2.686,1.939 2.685,1.939 -0.229,1.825 -0.197,1.825 -3.306,0.418 -3.308,0.418 0.196,2.053 c 0.109,1.141 0.376,2.263 0.557,2.472 0.179,0.209 1.374,-0.145 2.652,-0.761 1.28,-0.615 3.151,-1.995 4.158,-3.079 l 1.801,-1.977 1.442,0 1.441,0 2.062,1.71 2.064,1.711 0.491,2.548 0.458,2.509 -0.458,1.711 -0.491,1.749 -3.406,3.041 -3.439,3.042 -4.387,-0.304 -4.388,-0.267 0.164,3.194 0.163,3.194 -2.915,2.129 c -1.59,1.167 -3.197,2.091 -3.569,2.091 l -0.654,0 z m -145.327,4.372 6.124,-0.684 6.123,-0.685 0.983,-2.471 1.015,-2.433 2.881,-1.293 2.849,-1.33 0.426,-2.015 0.426,-1.977 1.342,-0.837 1.343,-0.836 2.62,0 2.651,0 0.427,-1.369 0.459,-1.331 -1.18,-2.889 -1.211,-2.928 -1.277,0.038 c -0.712,0.02 -2.779,0.907 -4.585,1.939 l -3.274,1.863 -1.9,3.27 -1.867,3.232 -3.274,2.395 c -1.792,1.309 -4.059,3.364 -5.042,4.6 l -1.77,2.281 -2.815,0.495 -2.816,0.532 -0.393,0.76 -0.394,0.723 1.081,0.494 1.048,0.456 z m 39.852,1.787 2.325,-0.532 2.292,-0.532 0.917,-1.445 c 0.504,-0.784 0.917,-2.12 0.917,-2.966 l 0,-1.52 -1.997,0.113 c -1.109,0.065 -2.803,0.289 -3.733,0.495 l -1.671,0.38 -0.393,1.141 -0.36,1.14 0.852,1.863 0.851,1.863 z m -17.65,16.805 1.31,0 1.342,0 1.31,-1.673 1.31,-1.673 0.065,-3.232 0.099,-3.193 -1.834,-0.114 c -1.007,-0.055 -4.887,0.291 -8.613,0.76 l -6.778,0.874 0,1.103 0,1.141 1.277,0.798 c 0.705,0.431 3.02,1.036 5.141,1.369 l 3.865,0.608 0.752,1.635 0.753,1.597 10e-4,0 z m -54.62,29.312 c -4.432,0.024 -12.486,-0.146 -17.88,-0.38 l -9.791,-0.456 -3.013,-3.042 c -1.654,-1.689 -4.294,-4.088 -5.861,-5.322 l -2.849,-2.243 -5.37,0 -5.371,0 -2.947,1.368 -2.947,1.369 -1.67,-0.494 -1.671,-0.494 -5.435,-4.715 -5.436,-4.752 -0.852,0.38 c -0.468,0.209 -3.442,0.619 -6.614,0.912 l -5.795,0.533 -1.048,-0.799 -1.048,-0.836 0.85,-1.977 c 0.476,-1.086 1.564,-2.981 2.424,-4.22 l 1.572,-2.282 -0.524,-0.988 -0.524,-0.95 -3.962,0.57 -3.962,0.57 0,-0.76 c 0,-0.422 1.59,-2.144 3.503,-3.802 1.913,-1.658 5.846,-4.662 8.775,-6.692 l 5.339,-3.688 -0.262,-0.912 c -0.144,-0.504 -1.809,-2.061 -3.701,-3.422 l -3.438,-2.471 -4.257,-0.038 -4.257,-0.076 -4.617,3.612 -4.617,3.574 -1.702,0 c -0.939,0 -3.13,-0.395 -4.848,-0.913 l -3.11,-0.95 -2.031,0.912 -2.03,0.951 0.917,1.749 0.949,1.786 -1.374,1.141 -1.376,1.179 -5.24,1.444 -5.271,1.445 -2.292,-1.407 -2.325,-1.368 -2.227,0 -2.26,0 -2.815,-3.422 -2.85,-3.384 -0.393,-1.711 -0.393,-1.749 1.801,-2.471 1.835,-2.509 -0.787,-1.673 c -0.429,-0.929 -1.531,-2.278 -2.423,-3.003 l -1.605,-1.331 -3.733,0 -3.733,0 -1.408,1.254 c -0.781,0.687 -1.998,1.241 -2.685,1.255 l -1.245,0.038 -8.251,-5.247 C 40.87,100.726 35.831,97.511 34.22,96.455 32.609,95.399 27.647,91.236 23.217,87.178 18.786,83.121 14.77,79.207 14.277,78.472 l -0.917,-1.369 0.459,-6.083 0.425,-6.083 -3.83,-1.825 -3.832,-1.863 0.524,-1.483 c 0.291,-0.822 0.567,-2.07 0.623,-2.737 l 0.13,-1.217 -7.695,-2.243 c -4.23,-1.234 -9.481,-2.974 -11.658,-3.878 l -3.962,-1.635 -2.62,-3.916 c -1.448,-2.15 -3.287,-4.94 -4.093,-6.197 l -1.473,-2.281 -5.502,-1.027 -5.501,-1.026 -0.36,-9.353 -0.36,-9.352 -2.784,-5.323 -2.783,-5.285 -2.719,-0.798 c -1.486,-0.44 -3.766,-1.059 -5.075,-1.369 l -2.391,-0.57 0,-1.445 c 0,-0.808 0.49,-2.21 1.081,-3.118 0.592,-0.907 1.1,-2.344 1.114,-3.193 l 0,-1.559 -2.195,-2.129 c -1.208,-1.18 -2.193,-2.533 -2.193,-2.965 0,-0.433 1.093,-2.155 2.422,-3.841 l 2.424,-3.041 7.761,1.103 7.794,1.102 8.153,-1.977 8.153,-1.977 2.686,1.407 2.718,1.369 5.272,-1.597 5.304,-1.597 5.699,-3.84 5.698,-3.802 3.405,-0.836 3.438,-0.837 0.623,0.532 c 0.355,0.286 1.385,1.702 2.26,3.156 l 1.571,2.623 4.617,0.457 4.584,0.456 4.356,2.433 4.355,2.433 0.295,1.103 0.295,1.14 -3.373,3.574 -3.374,3.612 0.034,2.928 0,2.965 0.621,1.141 0.623,1.102 3.733,-2.167 c 2.055,-1.209 4.077,-2.205 4.486,-2.205 l 0.753,0 1.408,3.232 1.441,3.269 2.947,2.281 c 1.631,1.254 3.266,2.244 3.635,2.244 0.369,0 0.869,-0.591 1.114,-1.331 0.243,-0.74 0.451,-2.955 0.457,-4.905 l 0.033,-3.535 0.524,-0.951 0.556,-0.988 5.011,-1.787 c 2.761,-0.988 5.718,-1.787 6.582,-1.787 l 1.572,0 4.551,2.509 c 2.499,1.372 5.524,3.323 6.746,4.372 l 2.227,1.939 0.557,-0.646 0.524,-0.608 -2.031,-6.616 -2.03,-6.615 2.62,-6.273 2.586,-6.311 0,-1.597 c 0,-0.886 -0.577,-3.494 -1.277,-5.779 l -1.276,-4.144 3.012,-3.46 2.98,-3.498 8.35,-2.851 c 4.589,-1.58 9.205,-2.914 10.249,-2.928 l 1.9,0 4.322,1.749 4.323,1.749 5.665,-1.027 5.632,-0.988 6.451,2.167 c 3.541,1.19 10.353,3.006 15.161,4.03 4.809,1.025 10.554,2.574 12.772,3.46 2.217,0.886 4.783,2.194 5.697,2.889 0.914,0.695 2.143,1.255 2.718,1.255 l 1.048,0 0.36,-1.103 0.36,-1.102 14.015,-10.493 14.016,-10.456 0.819,-1.749 0.785,-1.749 -0.392,-10.683 c -0.222,-5.882 -0.639,-11.536 -0.917,-12.584 l -0.492,-1.939 1.736,-0.799 1.736,-0.798 7.663,-0.038 7.695,-0.037 1.048,0.76 1.08,0.799 -2.75,7.147 -2.751,7.109 -0.72,5.893 -0.753,5.893 0.457,4.373 0.459,4.372 5.076,8.402 c 2.801,4.611 5.749,9.249 6.55,10.341 0.799,1.092 1.473,2.178 1.473,2.396 0,0.218 -1.157,0.957 -2.555,1.634 -1.397,0.678 -3.112,1.217 -3.831,1.217 l -1.309,0 -1.736,-3.802 -1.768,-3.84 -3.472,-3.764 -3.504,-3.802 -4.093,-1.368 -4.126,-1.407 -2.357,0.608 -2.391,0.608 -4.551,5.361 c -2.518,2.959 -4.585,5.757 -4.585,6.197 0,0.441 1.165,1.973 2.586,3.422 1.421,1.448 3.794,3.362 5.305,4.258 l 2.751,1.635 4.389,0.913 4.355,0.912 5.337,2.357 5.305,2.319 0,0.951 0,0.95 -4.388,1.103 -4.387,1.064 -8.187,-1.064 -8.186,-1.103 -2.064,2.89 c -1.136,1.59 -2.052,3.334 -2.063,3.878 l -0.033,0.988 2.325,2.281 2.358,2.282 -0.95,2.661 c -0.518,1.477 -1.11,3.519 -1.309,4.524 l -0.36,1.825 2.096,0.494 c 1.146,0.265 3.298,0.724 4.812,1.027 l 2.784,0.57 1.473,2.433 1.507,2.472 7.27,-0.571 7.27,-0.532 3.11,3.764 c 1.72,2.069 4.283,5.661 5.699,7.984 l 2.586,4.22 3.634,1.445 c 2.01,0.804 5.068,1.892 6.78,2.395 l 3.11,0.913 0,1.863 c -0.007,1.034 -0.273,2.349 -0.589,2.927 l -0.589,1.065 -4.225,1.71 -4.257,1.673 -1.572,-0.95 c -0.865,-0.531 -3.575,-2.683 -5.992,-4.791 -2.417,-2.108 -5.254,-4.757 -6.32,-5.893 l -1.932,-2.091 -1.637,1.027 -1.638,1.026 -2.653,-0.494 -2.652,-0.494 -0.883,0.646 -0.884,0.609 -0.164,3.003 -0.164,2.966 0.49,0.988 0.524,0.951 4.716,0.608 4.749,0.57 1.014,0.951 c 0.558,0.531 2.544,3.345 4.421,6.235 l 3.405,5.246 4.192,1.863 c 2.314,1.011 7.531,2.79 11.559,3.992 4.029,1.203 7.592,2.518 7.958,2.89 l 0.688,0.684 -0.951,1.293 -0.916,1.293 0.36,1.102 0.394,1.141 2.946,1.14 2.98,1.141 0.426,1.293 0.426,1.33 -0.459,5.627 -0.49,5.627 3.339,2.927 3.34,2.928 0.884,1.901 0.917,1.939 0.884,0 c 0.497,0 2.852,1.677 5.206,3.726 l 4.291,3.688 10.839,6.919 c 5.969,3.797 11.171,6.92 11.559,6.92 0.388,0 2.319,-0.97 4.29,-2.13 l 3.569,-2.091 0.491,-1.786 c 0.268,-0.981 0.367,-1.932 0.197,-2.13 -0.171,-0.198 -1.939,-0.715 -3.897,-1.14 l -3.537,-0.798 -1.408,-2.206 c -0.764,-1.219 -3.415,-3.989 -5.894,-6.159 -2.48,-2.17 -6.235,-5.883 -8.35,-8.25 l -3.832,-4.296 0,-1.863 c 0,-1.03 -0.229,-2.552 -0.49,-3.346 l -0.492,-1.445 -5.927,-3.155 -5.927,-3.156 -3.045,-4.6 c -1.681,-2.53 -3.45,-5.744 -3.897,-7.11 l -0.787,-2.471 0.328,-1.064 0.36,-1.065 4.028,-0.57 4.061,-0.609 1.212,-1.026 1.212,-1.027 -5.142,-4.41 c -2.828,-2.434 -6.314,-5.934 -7.761,-7.794 l -2.652,-3.384 0,-2.889 0,-2.889 1.179,-0.533 c 0.636,-0.284 2.446,-0.494 4.027,-0.494 l 2.849,0 1.408,1.901 c 0.768,1.052 2.509,3.614 3.864,5.703 l 2.456,3.802 6.386,2.167 6.353,2.167 0.949,1.369 0.917,1.406 3.176,0.533 3.177,0.532 4.518,2.395 4.52,2.395 2.193,2.548 c 1.208,1.405 3.144,4.121 4.29,6.045 l 2.063,3.497 0.132,2.814 0.097,2.813 -5.337,-0.266 -5.338,-0.266 1.147,2.623 1.145,2.586 -0.785,1.749 -0.819,1.749 -2.292,-0.267 -2.325,-0.266 -1.016,2.434 -1.014,2.433 0.785,2.015 0.786,1.977 6.452,2.242 c 3.54,1.235 6.831,2.373 7.334,2.548 l 0.917,0.342 0,1.711 0,1.71 1.637,0.419 c 0.907,0.23 3.483,0.772 5.698,1.216 l 4.028,0.799 3.405,2.243 c 1.875,1.219 3.796,2.739 4.257,3.384 l 0.819,1.178 -0.753,0.533 c -0.422,0.302 -0.786,1.02 -0.786,1.596 l 0,1.065 4.028,2.281 4.028,2.281 0,1.255 0,1.216 -2.719,2.586 -2.717,2.623 -1.867,0 c -1.015,0.004 -4.424,-0.433 -7.564,-0.988 l -5.698,-1.027 -1.867,2.205 -1.898,2.167 0.49,1.749 0.492,1.711 2.881,3.498 2.883,3.46 2.258,0 2.227,0 2.227,1.33 2.227,1.331 3.765,-1.027 c 2.076,-0.566 5.039,-1.592 6.55,-2.281 l 2.717,-1.254 0,-1.027 c 0,-0.557 -0.374,-1.461 -0.85,-2.015 l -0.852,-0.988 0.425,-0.533 c 0.242,-0.28 1.699,-0.66 3.242,-0.874 l 2.817,-0.38 1.08,0.836 1.114,0.836 -0.918,1.065 -0.916,1.065 0,1.444 0,1.445 1.146,0.494 c 0.638,0.284 2.094,0.533 3.209,0.533 1.115,0 3.054,-0.437 4.322,-0.951 l 2.293,-0.912 0,-1.635 0,-1.635 2.096,0 c 1.144,0 3.688,-0.558 5.665,-1.255 1.977,-0.696 4.174,-1.249 4.879,-1.254 l 1.276,-0.038 0,0.836 c 0,0.45 -0.698,1.604 -1.572,2.547 -0.872,0.944 -2.778,2.64 -4.223,3.802 l -2.62,2.129 -7.041,2.129 -7.073,2.13 -5.763,3.193 -5.764,3.232 -0.359,2.547 -0.361,2.547 -6.222,1.863 c -3.42,1.018 -7.292,1.867 -8.611,1.901 l -2.424,0.076 -4.191,1.711 c -2.306,0.94 -5.755,2.86 -7.696,4.258 -1.94,1.399 -3.943,2.512 -4.42,2.51 -0.477,-0.002 -3.332,-1.081 -6.352,-2.434 l -5.502,-2.471 -8.416,-0.57 c -4.632,-0.312 -10.36,-0.973 -12.738,-1.445 -2.379,-0.471 -6.004,-1.567 -8.056,-2.471 -2.052,-0.904 -4.202,-2.003 -4.781,-2.433 l -1.048,-0.799 0.951,-1.33 0.949,-1.331 -4.191,0 -4.192,0 -4.388,3.079 -4.355,3.08 -2.816,-0.456 -2.816,-0.419 -1.704,1.331 c -0.935,0.733 -3.715,3.368 -6.188,5.855 l -4.519,4.524 -3.537,1.863 -3.569,1.901 -8.055,0.038 z"
             id="path3209"
             style="fill:#ea8c20;fill-opacity:1;fill-rule:nonzero;stroke:none" /></g></g></g></g></svg>