<?xml version="1.0" encoding="UTF-8"?>
<svg id="Layer_1" data-name="Layer 1" xmlns="http://www.w3.org/2000/svg" width="150mm" height="29.42213mm" viewBox="0 0 425.19685 83.40132">
  <defs>
    <style>
      .cls-1 {
        fill: #0957a4;
      }
    </style>
  </defs>
  <polygon class="cls-1" points="161.04259 48.00078 163.89268 39.3306 147.72237 39.3306 149.34233 34.29054 168.51269 34.29054 171.48271 25.26036 140.10231 25.26036 127.7121 63.03105 159.90256 63.03105 162.90261 53.82088 142.95221 53.82088 144.87229 48.00078 161.04259 48.00078"/>
  <polygon class="cls-1" points="135.60224 25.26036 98.82161 25.26036 95.55148 35.19051 108.03178 35.19051 98.91152 63.03105 111.12174 63.03105 120.24182 35.19051 132.33211 35.19051 135.60224 25.26036"/>
  <polygon class="cls-1" points="190.5031 25.26036 178.29288 25.26036 165.93269 63.03105 195.81306 63.03105 199.11322 53.01081 181.41286 53.01081 190.5031 25.26036"/>
  <path class="cls-1" d="M280.65452,42.03071c.11994-.51014,.2699-1.32003,.45008-2.43003,.71998-4.80019-.18018-8.55025-2.76018-11.28021-2.54997-2.70012-6.48002-4.05018-11.8202-4.05018-6.09,0-11.52008,1.80014-16.29024,5.43026-4.8,3.62994-8.19007,8.43013-10.20006,14.46007-.54017,1.68002-.90016,3.1502-1.11019,4.4402-.71998,4.8,.18018,8.55007,2.76018,11.28021,2.54997,2.75999,6.48002,4.1399,11.79017,4.1399,6.21012,0,11.6402-1.76993,16.3503-5.30996,4.7101-3.57007,8.09999-8.4001,10.14018-14.55035,.32996-.93001,.57002-1.64999,.68995-2.12992Zm-12.00019-1.53005c-.14997,.96004-.45008,2.18998-.93001,3.65997-1.05013,3.1502-2.36997,5.58023-3.93006,7.26025-1.92008,2.09989-4.32008,3.15001-7.17016,3.15001-2.28007,0-3.83997-.66011-4.68007-1.98013-.68995-1.11-.83992-2.6699-.53999-4.73995,.08991-.60005,.24006-1.20009,.39002-1.83017,.14997-.62989,.35999-1.25997,.53999-1.86002,1.04994-3.15001,2.33994-5.55002,3.87-7.23004,1.9501-2.1301,4.35011-3.15001,7.23022-3.15001,2.30991,0,3.83997,.65992,4.68007,1.97995,.68995,1.07997,.83992,2.67009,.53999,4.74013Z"/>
  <polygon class="cls-1" points="396.30637 25.26036 381.63608 25.26036 364.5658 37.77051 368.646 25.26036 356.58575 25.26036 344.19553 63.03105 356.25579 63.03105 360.18585 51.00083 365.28596 47.91069 370.83598 63.03105 383.82624 63.03105 385.14627 61.20107 376.86611 39.18063 396.30637 25.26036"/>
  <polygon class="cls-1" points="243.48388 25.26036 206.73328 25.26036 203.46333 35.19051 215.94345 35.19051 206.79334 63.03105 219.03359 63.03105 228.12364 35.19051 240.24377 35.19051 243.48388 25.26036"/>
  <path class="cls-1" d="M316.89516,25.26036l-5.8201,17.79027c-.57002,1.71005-.93001,3.21007-1.14003,4.5301l-.09009,.63008-.65992-2.94017c-.06006-.41987-.09009-.83992-.12012-1.29-.05988-.41987-.11994-.80989-.23987-1.16988l-5.28012-17.5504h-11.58014l-12.39022,37.77069h11.58014l5.76004-17.70036c.53999-1.61996,.89998-3.11998,1.11-4.5301l.12012-.62989c.14997,.75001,.29993,1.40994,.41987,2.07004,.35999,2.12992,.57002,3.23992,.57002,3.36004l5.3702,17.43028h11.58014l12.39022-37.77069h-11.58014Z"/>
  <polygon class="cls-1" points="336.30539 25.26036 323.91518 63.03105 336.39548 63.03105 348.7857 25.26036 336.30539 25.26036"/>
  <path class="cls-1" d="M425.19685,63.03105l-2.1301-37.77069h-12.39022l-25.53026,35.94071,.68995,1.82999h9.93015l3.2401-4.98018h14.16014l-.05988,4.98018h12.0901Zm-21.12028-12.9302l8.94009-13.08035,.35999,13.08035h-9.30008Z"/>
  <path class="cls-1" d="M78.27117,68.58107l-26.73035-26.70032,26.34033-27.15059,9.99021,9.72031,11.91029-12.30031L87.51137,.21003l-11.79017,12.12013L63.66095,.63008l-10.9801,11.28003L40.41057,0l-11.91011,12.30013v.03003L.03003,41.67072l-.03003,.05988,28.92033,28.92051,12.09028,12.12013,11.31024-11.31006,11.94014,11.94014,12.15016-12.12013,11.70026,11.70008,12.12013-12.12013-12.12013-12.12013-9.84025,9.84006Zm-47.07077-.21003L4.47004,41.67072,30.81038,14.55016l9.96018,9.66025-17.52018,18.0902v.03003l16.9802,17.01023-9.03018,9.03018Zm23.22035,.63008l-26.70032-26.70051L54.00088,15.15021l9.81003,9.5101-16.74014,17.22043h.03003l-.03003,.02985,17.22025,17.22043-9.87028,9.87009Z"/>
</svg>